<mxfile host="app.diagrams.net" modified="2021-05-07T14:56:48.818Z" agent="5.0 (Windows NT 10.0; Win64; x64) AppleWebKit/537.36 (KHTML, like Gecko) Chrome/90.0.4430.93 Safari/537.36" etag="2-vL1bSjoTo2uCtgcNM5" version="14.6.11" type="github">
  <diagram id="Dt0uWwKCrtpq04SEQsHk" name="Page-1">
    <mxGraphModel dx="1673" dy="896" grid="1" gridSize="10" guides="1" tooltips="1" connect="1" arrows="1" fold="1" page="1" pageScale="1" pageWidth="1169" pageHeight="827" math="0" shadow="0">
      <root>
        <mxCell id="0" />
        <mxCell id="1" parent="0" />
        <mxCell id="GNTpq8VOZJhVU5nzUEya-7" value="AWS Cloud" style="points=[[0,0],[0.25,0],[0.5,0],[0.75,0],[1,0],[1,0.25],[1,0.5],[1,0.75],[1,1],[0.75,1],[0.5,1],[0.25,1],[0,1],[0,0.75],[0,0.5],[0,0.25]];outlineConnect=0;gradientColor=none;html=1;whiteSpace=wrap;fontSize=12;fontStyle=0;shape=mxgraph.aws4.group;grIcon=mxgraph.aws4.group_aws_cloud_alt;strokeColor=#232F3E;fillColor=none;verticalAlign=top;align=left;spacingLeft=30;fontColor=#232F3E;dashed=0;" vertex="1" parent="1">
          <mxGeometry x="70" y="99" width="500" height="450" as="geometry" />
        </mxCell>
        <mxCell id="GNTpq8VOZJhVU5nzUEya-9" value="VPC" style="points=[[0,0],[0.25,0],[0.5,0],[0.75,0],[1,0],[1,0.25],[1,0.5],[1,0.75],[1,1],[0.75,1],[0.5,1],[0.25,1],[0,1],[0,0.75],[0,0.5],[0,0.25]];outlineConnect=0;gradientColor=none;html=1;whiteSpace=wrap;fontSize=12;fontStyle=0;shape=mxgraph.aws4.group;grIcon=mxgraph.aws4.group_vpc;strokeColor=#248814;fillColor=none;verticalAlign=top;align=left;spacingLeft=30;fontColor=#AAB7B8;dashed=0;" vertex="1" parent="1">
          <mxGeometry x="102" y="139" width="350" height="380" as="geometry" />
        </mxCell>
        <mxCell id="GNTpq8VOZJhVU5nzUEya-10" value="Availability Zone" style="fillColor=none;strokeColor=#147EBA;dashed=1;verticalAlign=top;fontStyle=0;fontColor=#147EBA;" vertex="1" parent="1">
          <mxGeometry x="140" y="179" width="100" height="290" as="geometry" />
        </mxCell>
        <mxCell id="GNTpq8VOZJhVU5nzUEya-11" value="Availability Zone" style="fillColor=none;strokeColor=#147EBA;dashed=1;verticalAlign=top;fontStyle=0;fontColor=#147EBA;" vertex="1" parent="1">
          <mxGeometry x="260" y="179" width="100" height="290" as="geometry" />
        </mxCell>
        <mxCell id="GNTpq8VOZJhVU5nzUEya-14" style="edgeStyle=orthogonalEdgeStyle;rounded=0;orthogonalLoop=1;jettySize=auto;html=1;entryX=0;entryY=0.5;entryDx=0;entryDy=0;entryPerimeter=0;startArrow=classic;startFill=1;" edge="1" parent="1" source="GNTpq8VOZJhVU5nzUEya-12" target="GNTpq8VOZJhVU5nzUEya-13">
          <mxGeometry relative="1" as="geometry" />
        </mxCell>
        <mxCell id="GNTpq8VOZJhVU5nzUEya-12" value="&lt;font style=&quot;font-size: 8px&quot;&gt;GW Endpoint&lt;/font&gt;" style="outlineConnect=0;fontColor=#232F3E;gradientColor=none;fillColor=#5A30B5;strokeColor=none;dashed=0;verticalLabelPosition=middle;verticalAlign=middle;align=right;html=1;fontSize=12;fontStyle=0;aspect=fixed;pointerEvents=1;shape=mxgraph.aws4.endpoints;labelPosition=left;" vertex="1" parent="1">
          <mxGeometry x="412" y="306" width="20" height="20" as="geometry" />
        </mxCell>
        <mxCell id="GNTpq8VOZJhVU5nzUEya-13" value="" style="points=[[0,0,0],[0.25,0,0],[0.5,0,0],[0.75,0,0],[1,0,0],[0,1,0],[0.25,1,0],[0.5,1,0],[0.75,1,0],[1,1,0],[0,0.25,0],[0,0.5,0],[0,0.75,0],[1,0.25,0],[1,0.5,0],[1,0.75,0]];outlineConnect=0;fontColor=#232F3E;gradientColor=#60A337;gradientDirection=north;fillColor=#277116;strokeColor=#ffffff;dashed=0;verticalLabelPosition=bottom;verticalAlign=top;align=center;html=1;fontSize=12;fontStyle=0;aspect=fixed;shape=mxgraph.aws4.resourceIcon;resIcon=mxgraph.aws4.s3;" vertex="1" parent="1">
          <mxGeometry x="492" y="302" width="28" height="28" as="geometry" />
        </mxCell>
        <mxCell id="GNTpq8VOZJhVU5nzUEya-16" style="edgeStyle=orthogonalEdgeStyle;rounded=0;orthogonalLoop=1;jettySize=auto;html=1;" edge="1" parent="1" source="GNTpq8VOZJhVU5nzUEya-15" target="GNTpq8VOZJhVU5nzUEya-12">
          <mxGeometry relative="1" as="geometry" />
        </mxCell>
        <mxCell id="GNTpq8VOZJhVU5nzUEya-15" value="" style="points=[[0,0,0],[0.25,0,0],[0.5,0,0],[0.75,0,0],[1,0,0],[0,1,0],[0.25,1,0],[0.5,1,0],[0.75,1,0],[1,1,0],[0,0.25,0],[0,0.5,0],[0,0.75,0],[1,0.25,0],[1,0.5,0],[1,0.75,0]];outlineConnect=0;fontColor=#232F3E;gradientColor=#945DF2;gradientDirection=north;fillColor=#5A30B5;strokeColor=#ffffff;dashed=0;verticalLabelPosition=bottom;verticalAlign=top;align=center;html=1;fontSize=12;fontStyle=0;aspect=fixed;shape=mxgraph.aws4.resourceIcon;resIcon=mxgraph.aws4.glue;" vertex="1" parent="1">
          <mxGeometry x="492" y="236" width="28" height="28" as="geometry" />
        </mxCell>
        <mxCell id="GNTpq8VOZJhVU5nzUEya-19" style="edgeStyle=orthogonalEdgeStyle;rounded=0;orthogonalLoop=1;jettySize=auto;html=1;" edge="1" parent="1" source="GNTpq8VOZJhVU5nzUEya-17" target="GNTpq8VOZJhVU5nzUEya-12">
          <mxGeometry relative="1" as="geometry" />
        </mxCell>
        <mxCell id="GNTpq8VOZJhVU5nzUEya-17" value="" style="points=[[0,0,0],[0.25,0,0],[0.5,0,0],[0.75,0,0],[1,0,0],[0,1,0],[0.25,1,0],[0.5,1,0],[0.75,1,0],[1,1,0],[0,0.25,0],[0,0.5,0],[0,0.75,0],[1,0.25,0],[1,0.5,0],[1,0.75,0]];outlineConnect=0;fontColor=#232F3E;gradientColor=#F78E04;gradientDirection=north;fillColor=#D05C17;strokeColor=#ffffff;dashed=0;verticalLabelPosition=bottom;verticalAlign=top;align=center;html=1;fontSize=12;fontStyle=0;aspect=fixed;shape=mxgraph.aws4.resourceIcon;resIcon=mxgraph.aws4.lambda;" vertex="1" parent="1">
          <mxGeometry x="493" y="366" width="26" height="26" as="geometry" />
        </mxCell>
        <mxCell id="GNTpq8VOZJhVU5nzUEya-20" value="&lt;font style=&quot;font-size: 8px&quot;&gt;&lt;br&gt;Virtual Private Gateway&lt;/font&gt;" style="outlineConnect=0;fontColor=#232F3E;gradientColor=none;fillColor=#5A30B5;strokeColor=none;dashed=0;verticalLabelPosition=middle;verticalAlign=middle;align=right;html=1;fontSize=12;fontStyle=0;aspect=fixed;pointerEvents=1;shape=mxgraph.aws4.vpn_gateway;labelPosition=left;" vertex="1" parent="1">
          <mxGeometry x="265" y="489" width="24" height="24" as="geometry" />
        </mxCell>
        <mxCell id="GNTpq8VOZJhVU5nzUEya-24" value="Corporate data center" style="points=[[0,0],[0.25,0],[0.5,0],[0.75,0],[1,0],[1,0.25],[1,0.5],[1,0.75],[1,1],[0.75,1],[0.5,1],[0.25,1],[0,1],[0,0.75],[0,0.5],[0,0.25]];outlineConnect=0;gradientColor=none;html=1;whiteSpace=wrap;fontSize=12;fontStyle=0;shape=mxgraph.aws4.group;grIcon=mxgraph.aws4.group_corporate_data_center;strokeColor=#5A6C86;fillColor=none;verticalAlign=top;align=left;spacingLeft=30;fontColor=#5A6C86;dashed=0;" vertex="1" parent="1">
          <mxGeometry x="520" y="599" width="130" height="130" as="geometry" />
        </mxCell>
        <mxCell id="GNTpq8VOZJhVU5nzUEya-26" style="edgeStyle=orthogonalEdgeStyle;rounded=0;orthogonalLoop=1;jettySize=auto;html=1;endArrow=none;endFill=0;dashed=1;" edge="1" parent="1" source="GNTpq8VOZJhVU5nzUEya-25" target="GNTpq8VOZJhVU5nzUEya-20">
          <mxGeometry relative="1" as="geometry" />
        </mxCell>
        <mxCell id="GNTpq8VOZJhVU5nzUEya-39" style="edgeStyle=orthogonalEdgeStyle;rounded=0;orthogonalLoop=1;jettySize=auto;html=1;dashed=1;startArrow=none;startFill=0;endArrow=none;endFill=0;" edge="1" parent="1" source="GNTpq8VOZJhVU5nzUEya-25" target="GNTpq8VOZJhVU5nzUEya-20">
          <mxGeometry relative="1" as="geometry" />
        </mxCell>
        <mxCell id="GNTpq8VOZJhVU5nzUEya-25" value="&lt;font style=&quot;font-size: 8px&quot;&gt;Customer Gateway&lt;/font&gt;" style="outlineConnect=0;fontColor=#232F3E;gradientColor=none;fillColor=#5A30B5;strokeColor=none;dashed=0;verticalLabelPosition=top;verticalAlign=bottom;align=right;html=1;fontSize=12;fontStyle=0;aspect=fixed;pointerEvents=1;shape=mxgraph.aws4.customer_gateway;labelPosition=left;" vertex="1" parent="1">
          <mxGeometry x="506" y="659" width="28" height="28" as="geometry" />
        </mxCell>
        <mxCell id="GNTpq8VOZJhVU5nzUEya-27" value="&lt;font style=&quot;font-size: 8px ; line-height: 100%&quot;&gt;VPN&amp;nbsp;Connection&lt;/font&gt;" style="outlineConnect=0;fontColor=#232F3E;gradientColor=none;fillColor=#5A30B5;strokeColor=none;dashed=0;verticalLabelPosition=middle;verticalAlign=middle;align=left;html=1;fontSize=12;fontStyle=0;aspect=fixed;pointerEvents=1;shape=mxgraph.aws4.vpn_connection;labelPosition=right;" vertex="1" parent="1">
          <mxGeometry x="287" y="636.71" width="20" height="22.29" as="geometry" />
        </mxCell>
        <mxCell id="GNTpq8VOZJhVU5nzUEya-38" style="edgeStyle=orthogonalEdgeStyle;rounded=0;orthogonalLoop=1;jettySize=auto;html=1;entryX=1;entryY=0.5;entryDx=0;entryDy=0;entryPerimeter=0;startArrow=none;startFill=0;" edge="1" parent="1" source="GNTpq8VOZJhVU5nzUEya-37" target="GNTpq8VOZJhVU5nzUEya-13">
          <mxGeometry relative="1" as="geometry" />
        </mxCell>
        <mxCell id="GNTpq8VOZJhVU5nzUEya-41" style="edgeStyle=orthogonalEdgeStyle;rounded=0;orthogonalLoop=1;jettySize=auto;html=1;dashed=1;startArrow=classic;startFill=1;endArrow=none;endFill=0;" edge="1" parent="1" source="GNTpq8VOZJhVU5nzUEya-37" target="GNTpq8VOZJhVU5nzUEya-20">
          <mxGeometry relative="1" as="geometry">
            <Array as="points">
              <mxPoint x="422" y="479" />
              <mxPoint x="277" y="479" />
            </Array>
          </mxGeometry>
        </mxCell>
        <mxCell id="GNTpq8VOZJhVU5nzUEya-37" value="&lt;font style=&quot;font-size: 8px&quot;&gt;Interface&lt;br&gt;Endpoint&lt;/font&gt;" style="outlineConnect=0;fontColor=#232F3E;gradientColor=none;fillColor=#5A30B5;strokeColor=none;dashed=0;verticalLabelPosition=middle;verticalAlign=middle;align=right;html=1;fontSize=12;fontStyle=0;aspect=fixed;pointerEvents=1;shape=mxgraph.aws4.endpoints;labelPosition=left;" vertex="1" parent="1">
          <mxGeometry x="412" y="429" width="20" height="20" as="geometry" />
        </mxCell>
        <mxCell id="GNTpq8VOZJhVU5nzUEya-42" value="Snowflake Hosted VPC" style="points=[[0,0],[0.25,0],[0.5,0],[0.75,0],[1,0],[1,0.25],[1,0.5],[1,0.75],[1,1],[0.75,1],[0.5,1],[0.25,1],[0,1],[0,0.75],[0,0.5],[0,0.25]];outlineConnect=0;gradientColor=none;html=1;whiteSpace=wrap;fontSize=12;fontStyle=0;shape=mxgraph.aws4.group;grIcon=mxgraph.aws4.group_aws_cloud_alt;strokeColor=#232F3E;fillColor=none;verticalAlign=top;align=left;spacingLeft=30;fontColor=#232F3E;dashed=0;" vertex="1" parent="1">
          <mxGeometry x="780" y="99" width="320" height="310" as="geometry" />
        </mxCell>
        <mxCell id="GNTpq8VOZJhVU5nzUEya-46" style="edgeStyle=orthogonalEdgeStyle;rounded=0;orthogonalLoop=1;jettySize=auto;html=1;dashed=1;startArrow=none;startFill=0;endArrow=classic;endFill=1;" edge="1" parent="1" source="GNTpq8VOZJhVU5nzUEya-43" target="GNTpq8VOZJhVU5nzUEya-45">
          <mxGeometry relative="1" as="geometry" />
        </mxCell>
        <mxCell id="GNTpq8VOZJhVU5nzUEya-43" value="&lt;font style=&quot;font-size: 8px&quot;&gt;Interface&lt;br&gt;Endpoint&lt;/font&gt;" style="outlineConnect=0;fontColor=#232F3E;gradientColor=none;fillColor=#5A30B5;strokeColor=none;dashed=0;verticalLabelPosition=middle;verticalAlign=middle;align=right;html=1;fontSize=12;fontStyle=0;aspect=fixed;pointerEvents=1;shape=mxgraph.aws4.endpoints;labelPosition=left;" vertex="1" parent="1">
          <mxGeometry x="412" y="199" width="20" height="20" as="geometry" />
        </mxCell>
        <mxCell id="GNTpq8VOZJhVU5nzUEya-45" value="Network Load Balancer" style="outlineConnect=0;fontColor=#232F3E;gradientColor=none;fillColor=#5A30B5;strokeColor=none;dashed=0;verticalLabelPosition=middle;verticalAlign=middle;align=left;html=1;fontSize=12;fontStyle=0;aspect=fixed;pointerEvents=1;shape=mxgraph.aws4.network_load_balancer;labelPosition=right;" vertex="1" parent="1">
          <mxGeometry x="800" y="197" width="24" height="24" as="geometry" />
        </mxCell>
        <mxCell id="GNTpq8VOZJhVU5nzUEya-47" value="Enterprise &#xa;Landing" style="fillColor=none;strokeColor=#5A6C86;dashed=1;verticalAlign=top;fontStyle=0;fontColor=#5A6C86;" vertex="1" parent="1">
          <mxGeometry x="470" y="159" width="80" height="300" as="geometry" />
        </mxCell>
        <mxCell id="GNTpq8VOZJhVU5nzUEya-48" value="Text" style="text;html=1;strokeColor=none;fillColor=none;align=center;verticalAlign=middle;whiteSpace=wrap;rounded=0;" vertex="1" parent="1">
          <mxGeometry x="380" y="370" width="40" height="20" as="geometry" />
        </mxCell>
        <mxCell id="GNTpq8VOZJhVU5nzUEya-49" value="Enterprise Landing for Markets" style="text;html=1;align=center;verticalAlign=middle;whiteSpace=wrap;rounded=0;fontSize=14;fontStyle=1;fillColor=#f5f5f5;strokeColor=#666666;fontColor=#333333;" vertex="1" parent="1">
          <mxGeometry x="70" y="30" width="270" height="30" as="geometry" />
        </mxCell>
      </root>
    </mxGraphModel>
  </diagram>
</mxfile>
